<?xml version="1.0" standalone="no"?>
<!DOCTYPE svg PUBLIC "-//W3C//DTD SVG 20010904//EN"
 "http://www.w3.org/TR/2001/REC-SVG-20010904/DTD/svg10.dtd">
<svg version="1.0" xmlns="http://www.w3.org/2000/svg"
 width="445.000000pt" height="445.000000pt" viewBox="0 0 445.000000 445.000000"
 preserveAspectRatio="xMidYMid meet">
<metadata>
Created by potrace 1.14, written by Peter Selinger 2001-2017
</metadata>
<g transform="translate(0.000000,445.000000) scale(0.100000,-0.100000)"
fill="#000000" stroke="none">
<path d="M2387 4444 c-1 -1 -33 -4 -72 -8 -366 -33 -748 -178 -1062 -402 -330
-237 -599 -574 -756 -949 -29 -69 -94 -262 -101 -297 -2 -12 -9 -41 -14 -63
-6 -22 -13 -58 -17 -80 -3 -22 -10 -67 -15 -100 -5 -33 -12 -84 -15 -113 -7
-60 -8 -350 -1 -397 2 -16 7 -59 11 -95 19 -171 91 -429 170 -609 62 -140 119
-238 252 -431 73 -107 295 -332 419 -427 283 -215 582 -352 924 -422 124 -26
158 -30 403 -45 l37 -2 0 328 0 328 -67 1 c-38 0 -75 2 -83 3 -8 2 -42 6 -74
10 -86 9 -247 52 -351 93 -298 117 -559 329 -739 598 -97 145 -197 385 -225
540 -6 33 -13 69 -15 80 -23 119 -24 313 -1 485 15 119 75 307 140 442 77 162
177 300 316 438 274 272 663 438 1052 449 l47 1 0 325 0 325 -81 -2 c-44 -2
-81 -3 -82 -4z"/>
<path d="M2568 3802 c-17 -3 -18 -27 -18 -318 0 -244 3 -314 13 -315 6 0 26
-2 42 -4 17 -2 50 -5 75 -8 175 -18 382 -121 523 -260 148 -145 247 -340 275
-536 12 -84 6 -244 -13 -326 -30 -138 -98 -286 -170 -375 -178 -218 -412 -347
-667 -366 l-78 -6 0 943 0 942 -87 -6 c-346 -25 -662 -260 -793 -591 -45 -115
-64 -217 -63 -351 1 -197 49 -357 156 -517 168 -251 431 -404 727 -421 l55 -4
2 -302 c1 -167 4 -309 6 -315 4 -9 26 -12 74 -9 70 4 188 18 233 28 14 3 36 8
50 11 106 20 345 120 470 195 85 51 227 168 311 257 208 222 361 522 405 797
3 20 8 47 11 59 12 50 10 374 -3 460 -71 461 -345 871 -739 1108 -214 128
-449 206 -680 223 -44 4 -84 8 -90 9 -5 1 -18 1 -27 -2z"/>
</g>
</svg>
